<?xml version="1.0" encoding="UTF-8"?>
<svg id="Capa_1" data-name="Capa 1" xmlns="http://www.w3.org/2000/svg" xmlns:xlink="http://www.w3.org/1999/xlink" viewBox="0 0 40 40">
  <defs>
    <style>
      .cls-1 {
        fill: none;
      }

      .cls-2 {
        fill: #564086;
      }

      .cls-3 {
        fill: #721c46;
      }

      .cls-4 {
        fill: #62336d;
      }

      .cls-5 {
        fill: #52438f;
      }

      .cls-6 {
        fill: #593d80;
      }

      .cls-7 {
        fill: #692a5e;
      }

      .cls-8 {
        fill: #4c4a9b;
      }

      .cls-9 {
        fill: #4a4ca0;
      }

      .cls-10 {
        fill: #5d3778;
      }

      .cls-11 {
        fill: #583e83;
      }

      .cls-12 {
        fill: #652e66;
      }

      .cls-13 {
        fill: #524490;
      }

      .cls-14 {
        fill: #62316c;
      }

      .cls-15 {
        fill: #6a285a;
      }

      .cls-16 {
        fill: #6a285b;
      }

      .cls-17 {
        fill: #771338;
      }

      .cls-18 {
        fill: #4c4b9c;
      }

      .cls-19 {
        fill: #583e82;
      }

      .cls-20 {
        fill: #494da1;
      }

      .cls-21 {
        fill: #573f85;
      }

      .cls-22 {
        fill: #731a43;
      }

      .cls-23 {
        fill: #672c61;
      }

      .cls-24 {
        fill: #672c62;
      }

      .cls-25 {
        fill: #4551ab;
      }

      .cls-26 {
        fill: #5d387a;
      }

      .cls-27 {
        fill: #6b2757;
      }

      .cls-28 {
        fill: #5f3676;
      }

      .cls-29 {
        fill: #76163d;
      }

      .cls-30 {
        fill: #54428d;
      }

      .cls-31 {
        fill: #4f4795;
      }

      .cls-32 {
        fill: #4650a9;
      }

      .cls-33 {
        fill: #514693;
      }

      .cls-34 {
        fill: #741942;
      }

      .cls-35 {
        fill: #54438e;
      }

      .cls-36 {
        fill: #6f214f;
      }

      .cls-37 {
        fill: #55418a;
      }

      .cls-38 {
        fill: #554188;
      }

      .cls-39 {
        fill: #70204c;
      }

      .cls-40 {
        fill: #4c4a9c;
      }

      .cls-41 {
        fill: #652f67;
      }

      .cls-42 {
        fill: #652f68;
      }

      .cls-43 {
        fill: #4b4b9e;
      }

      .cls-44 {
        fill: #4e4897;
      }

      .cls-45 {
        fill: #4e4998;
      }

      .cls-46 {
        fill: #662d63;
      }

      .cls-47 {
        fill: #6e2351;
      }

      .cls-48 {
        fill: #6c2556;
      }

      .cls-49 {
        fill: #484fa6;
      }

      .cls-50 {
        fill: #484fa4;
      }

      .cls-51 {
        fill: #69295c;
      }

      .cls-52 {
        fill: #781137;
      }

      .cls-53 {
        fill: #5c397b;
      }

      .cls-54 {
        fill: #564087;
      }

      .cls-55 {
        fill: #464fa7;
      }

      .cls-56 {
        fill: #4c4a9a;
      }

      .cls-57 {
        fill: #593c80;
      }

      .cls-58 {
        fill: #6e2352;
      }

      .cls-59 {
        fill: #4550a9;
      }

      .cls-60 {
        fill: #5c397c;
      }

      .cls-61 {
        fill: #76143b;
      }

      .cls-62 {
        fill: #583f84;
      }

      .cls-63 {
        fill: #5b3b7d;
      }

      .cls-64 {
        fill: #5b3c7f;
      }

      .cls-65 {
        fill: #4f4896;
      }

      .cls-66 {
        fill: #6b2758;
      }

      .cls-67 {
        fill: #4b4c9f;
      }

      .cls-68 {
        fill: #514794;
      }

      .cls-69 {
        fill: #5b3b7e;
      }

      .cls-70 {
        fill: #701f4a;
      }

      .cls-71 {
        fill: #5f3675;
      }

      .cls-72 {
        fill: #5e3777;
      }

      .cls-73 {
        fill: #593d81;
      }

      .cls-74 {
        fill: #682a60;
      }

      .cls-75 {
        fill: #6e2453;
      }

      .cls-76 {
        fill: #484ea3;
      }

      .cls-77 {
        fill: #494da2;
      }

      .cls-78 {
        fill: #514591;
      }

      .cls-79 {
        fill: #662e65;
      }

      .cls-80 {
        fill: #61346f;
      }

      .cls-81 {
        fill: #751841;
      }

      .cls-82 {
        fill: #4551aa;
      }

      .cls-83 {
        fill: #484ea4;
      }

      .cls-84 {
        fill: #603573;
      }

      .cls-85 {
        fill: #61336e;
      }

      .cls-86 {
        fill: #5d3879;
      }

      .cls-87 {
        fill: #603572;
      }

      .cls-88 {
        fill: #6c2455;
      }

      .cls-89 {
        fill: #721b45;
      }

      .cls-90 {
        fill: #554189;
      }

      .cls-91 {
        fill: #75183e;
      }

      .cls-92 {
        fill: #613470;
      }

      .cls-93 {
        fill: #4f4796;
      }

      .cls-94 {
        fill: #64306b;
      }

      .cls-95 {
        fill: #711d48;
      }

      .cls-96 {
        fill: #643069;
      }

      .cls-97 {
        fill: #4650a8;
      }

      .cls-98 {
        fill: #514692;
      }

      .cls-99 {
        fill: #4e4999;
      }

      .cls-100 {
        clip-path: url(#clippath);
      }

      .cls-101 {
        fill: #711d49;
      }

      .cls-102 {
        fill: #6f204e;
      }

      .cls-103 {
        fill: #4b4b9d;
      }

      .cls-104 {
        fill: #54428c;
      }

      .cls-105 {
        fill: #77143a;
      }
    </style>
    <clipPath id="clippath">
      <path class="cls-1" d="M-.22-.2v40.45h40.39V-.2H-.22ZM19.98,29.65c-5.31,0-9.62-4.31-9.62-9.63s4.31-9.63,9.62-9.63,9.62,4.31,9.62,9.63-4.31,9.63-9.62,9.63Z"/>
    </clipPath>
  </defs>
  <g class="cls-100">
    <polygon class="cls-23" points="10.63 10.39 10.36 29.06 10.36 10.39 10.63 10.39"/>
    <polygon class="cls-24" points="11 10.39 10.72 29.65 10.36 29.65 10.36 29.06 10.63 10.39 11 10.39"/>
    <polygon class="cls-46" points="11.37 10.39 11.09 29.65 10.72 29.65 11 10.39 11.37 10.39"/>
    <polygon class="cls-79" points="11.74 10.39 11.47 29.65 11.09 29.65 11.37 10.39 11.74 10.39"/>
    <polygon class="cls-12" points="12.11 10.39 11.84 29.65 11.47 29.65 11.74 10.39 12.11 10.39"/>
    <polygon class="cls-41" points="12.49 10.39 12.21 29.65 11.84 29.65 12.11 10.39 12.49 10.39"/>
    <polygon class="cls-42" points="12.86 10.39 12.58 29.65 12.21 29.65 12.49 10.39 12.86 10.39"/>
    <polygon class="cls-96" points="13.23 10.39 12.95 29.65 12.58 29.65 12.86 10.39 13.23 10.39"/>
    <polygon class="cls-94" points="13.6 10.39 13.32 29.65 12.95 29.65 13.23 10.39 13.6 10.39"/>
    <polygon class="cls-14" points="13.97 10.39 13.69 29.65 13.32 29.65 13.6 10.39 13.97 10.39"/>
    <polygon class="cls-4" points="14.34 10.39 14.06 29.65 13.69 29.65 13.97 10.39 14.34 10.39"/>
    <polygon class="cls-85" points="14.71 10.39 14.43 29.65 14.06 29.65 14.34 10.39 14.71 10.39"/>
    <polygon class="cls-80" points="15.08 10.39 14.8 29.65 14.43 29.65 14.71 10.39 15.08 10.39"/>
    <polygon class="cls-92" points="15.45 10.39 15.18 29.65 14.8 29.65 15.08 10.39 15.45 10.39"/>
    <polygon class="cls-87" points="15.82 10.39 15.55 29.65 15.18 29.65 15.45 10.39 15.82 10.39"/>
    <polygon class="cls-84" points="16.2 10.39 15.92 29.65 15.55 29.65 15.82 10.39 16.2 10.39"/>
    <polygon class="cls-71" points="16.57 10.39 16.29 29.65 15.92 29.65 16.2 10.39 16.57 10.39"/>
    <polygon class="cls-28" points="16.94 10.39 16.66 29.65 16.29 29.65 16.57 10.39 16.94 10.39"/>
    <polygon class="cls-72" points="17.31 10.39 17.03 29.65 16.66 29.65 16.94 10.39 17.31 10.39"/>
    <polygon class="cls-10" points="17.68 10.39 17.4 29.65 17.03 29.65 17.31 10.39 17.68 10.39"/>
    <polygon class="cls-86" points="18.05 10.39 17.77 29.65 17.4 29.65 17.68 10.39 18.05 10.39"/>
    <polygon class="cls-26" points="18.42 10.39 18.14 29.65 17.77 29.65 18.05 10.39 18.42 10.39"/>
    <polygon class="cls-53" points="18.79 10.39 18.51 29.65 18.14 29.65 18.42 10.39 18.79 10.39"/>
    <polygon class="cls-60" points="19.16 10.39 18.89 29.65 18.51 29.65 18.79 10.39 19.16 10.39"/>
    <polygon class="cls-63" points="19.53 10.39 19.26 29.65 18.89 29.65 19.16 10.39 19.53 10.39"/>
    <polygon class="cls-69" points="19.9 10.39 19.63 29.65 19.26 29.65 19.53 10.39 19.9 10.39"/>
    <polygon class="cls-64" points="20.28 10.39 20 29.65 19.63 29.65 19.9 10.39 20.28 10.39"/>
    <polygon class="cls-57" points="20.65 10.39 20.37 29.65 20 29.65 20.28 10.39 20.65 10.39"/>
    <polygon class="cls-6" points="21.02 10.39 20.74 29.65 20.37 29.65 20.65 10.39 21.02 10.39"/>
    <polygon class="cls-73" points="21.39 10.39 21.11 29.65 20.74 29.65 21.02 10.39 21.39 10.39"/>
    <polygon class="cls-19" points="21.76 10.39 21.48 29.65 21.11 29.65 21.39 10.39 21.76 10.39"/>
    <polygon class="cls-11" points="22.13 10.39 21.85 29.65 21.48 29.65 21.76 10.39 22.13 10.39"/>
    <polygon class="cls-62" points="22.5 10.39 22.22 29.65 21.85 29.65 22.13 10.39 22.5 10.39"/>
    <polygon class="cls-21" points="22.87 10.39 22.59 29.65 22.22 29.65 22.5 10.39 22.87 10.39"/>
    <polygon class="cls-2" points="23.24 10.39 22.97 29.65 22.59 29.65 22.87 10.39 23.24 10.39"/>
    <polygon class="cls-54" points="23.61 10.39 23.34 29.65 22.97 29.65 23.24 10.39 23.61 10.39"/>
    <polygon class="cls-38" points="23.99 10.39 23.71 29.65 23.34 29.65 23.61 10.39 23.99 10.39"/>
    <polygon class="cls-90" points="24.36 10.39 24.08 29.65 23.71 29.65 23.99 10.39 24.36 10.39"/>
    <polygon class="cls-37" points="24.73 10.39 24.45 29.65 24.08 29.65 24.36 10.39 24.73 10.39"/>
    <polygon class="cls-104" points="25.1 10.39 24.82 29.65 24.45 29.65 24.73 10.39 25.1 10.39"/>
    <polygon class="cls-30" points="25.47 10.39 25.19 29.65 24.82 29.65 25.1 10.39 25.47 10.39"/>
    <polygon class="cls-35" points="25.84 10.39 25.56 29.65 25.19 29.65 25.47 10.39 25.84 10.39"/>
    <polygon class="cls-5" points="26.21 10.39 25.93 29.65 25.56 29.65 25.84 10.39 26.21 10.39"/>
    <polygon class="cls-13" points="26.58 10.39 26.3 29.65 25.93 29.65 26.21 10.39 26.58 10.39"/>
    <polygon class="cls-13" points="26.95 10.39 26.68 29.65 26.3 29.65 26.58 10.39 26.95 10.39"/>
    <polygon class="cls-78" points="27.32 10.39 27.05 29.65 26.68 29.65 26.95 10.39 27.32 10.39"/>
    <polygon class="cls-98" points="27.7 10.39 27.42 29.65 27.05 29.65 27.32 10.39 27.7 10.39"/>
    <polygon class="cls-33" points="28.07 10.39 27.79 29.65 27.42 29.65 27.7 10.39 28.07 10.39"/>
    <polygon class="cls-68" points="28.44 10.39 28.16 29.65 27.79 29.65 28.07 10.39 28.44 10.39"/>
    <polygon class="cls-31" points="28.81 10.39 28.53 29.65 28.16 29.65 28.44 10.39 28.81 10.39"/>
    <polygon class="cls-93" points="29.18 10.39 28.9 29.65 28.53 29.65 28.81 10.39 29.18 10.39"/>
    <polygon class="cls-65" points="29.55 10.39 29.27 29.65 28.9 29.65 29.18 10.39 29.55 10.39"/>
    <polygon class="cls-44" points="29.27 29.65 29.55 10.39 29.6 10.39 29.6 29.65 29.27 29.65"/>
    <polygon class="cls-52" points=".03 -.2 -.22 16.6 -.22 -.2 .03 -.2"/>
    <polygon class="cls-17" points=".4 -.2 -.19 40.24 -.22 40.24 -.22 16.6 .03 -.2 .4 -.2"/>
    <polygon class="cls-105" points=".77 -.2 .18 40.24 -.19 40.24 .4 -.2 .77 -.2"/>
    <polygon class="cls-61" points="1.14 -.2 .56 40.24 .18 40.24 .77 -.2 1.14 -.2"/>
    <polygon class="cls-29" points="1.51 -.2 .93 40.24 .56 40.24 1.14 -.2 1.51 -.2"/>
    <polygon class="cls-91" points="1.88 -.2 1.3 40.24 .93 40.24 1.51 -.2 1.88 -.2"/>
    <polygon class="cls-81" points="2.25 -.2 1.67 40.24 1.3 40.24 1.88 -.2 2.25 -.2"/>
    <polygon class="cls-34" points="2.62 -.2 2.04 40.24 1.67 40.24 2.25 -.2 2.62 -.2"/>
    <polygon class="cls-22" points="2.99 -.2 2.41 40.24 2.04 40.24 2.62 -.2 2.99 -.2"/>
    <polygon class="cls-89" points="3.36 -.2 2.78 40.24 2.41 40.24 2.99 -.2 3.36 -.2"/>
    <polygon class="cls-3" points="3.74 -.2 3.15 40.24 2.78 40.24 3.36 -.2 3.74 -.2"/>
    <polygon class="cls-95" points="4.11 -.2 3.52 40.24 3.15 40.24 3.74 -.2 4.11 -.2"/>
    <polygon class="cls-101" points="4.48 -.2 3.89 40.24 3.52 40.24 4.11 -.2 4.48 -.2"/>
    <polygon class="cls-70" points="4.85 -.2 4.26 40.24 3.89 40.24 4.48 -.2 4.85 -.2"/>
    <polygon class="cls-39" points="5.22 -.2 4.64 40.24 4.26 40.24 4.85 -.2 5.22 -.2"/>
    <polygon class="cls-102" points="5.59 -.2 5.01 40.24 4.64 40.24 5.22 -.2 5.59 -.2"/>
    <polygon class="cls-36" points="5.96 -.2 5.38 40.24 5.01 40.24 5.59 -.2 5.96 -.2"/>
    <polygon class="cls-47" points="6.33 -.2 5.75 40.24 5.38 40.24 5.96 -.2 6.33 -.2"/>
    <polygon class="cls-58" points="6.7 -.2 6.12 40.24 5.75 40.24 6.33 -.2 6.7 -.2"/>
    <polygon class="cls-75" points="7.07 -.2 6.49 40.24 6.12 40.24 6.7 -.2 7.07 -.2"/>
    <polygon class="cls-88" points="7.44 -.2 6.86 40.24 6.49 40.24 7.07 -.2 7.44 -.2"/>
    <polygon class="cls-48" points="7.82 -.2 7.23 40.24 6.86 40.24 7.44 -.2 7.82 -.2"/>
    <polygon class="cls-27" points="8.19 -.2 7.6 40.24 7.23 40.24 7.82 -.2 8.19 -.2"/>
    <polygon class="cls-66" points="8.56 -.2 7.97 40.24 7.6 40.24 8.19 -.2 8.56 -.2"/>
    <polygon class="cls-15" points="8.93 -.2 8.35 40.24 7.97 40.24 8.56 -.2 8.93 -.2"/>
    <polygon class="cls-16" points="9.3 -.2 8.72 40.24 8.35 40.24 8.93 -.2 9.3 -.2"/>
    <polygon class="cls-51" points="9.67 -.2 9.09 40.24 8.72 40.24 9.3 -.2 9.67 -.2"/>
    <polygon class="cls-7" points="10.04 -.2 9.46 40.24 9.09 40.24 9.67 -.2 10.04 -.2"/>
    <polygon class="cls-74" points="10.41 -.2 9.83 40.24 9.46 40.24 10.04 -.2 10.41 -.2"/>
    <polygon class="cls-23" points="10.78 -.2 10.2 40.24 9.83 40.24 10.41 -.2 10.78 -.2"/>
    <polygon class="cls-24" points="11.15 -.2 10.57 40.24 10.2 40.24 10.78 -.2 11.15 -.2"/>
    <polygon class="cls-46" points="11.53 -.2 10.94 40.24 10.57 40.24 11.15 -.2 11.53 -.2"/>
    <polygon class="cls-79" points="11.9 -.2 11.31 40.24 10.94 40.24 11.53 -.2 11.9 -.2"/>
    <polygon class="cls-12" points="12.27 -.2 11.68 40.24 11.31 40.24 11.9 -.2 12.27 -.2"/>
    <polygon class="cls-41" points="12.64 -.2 12.05 40.24 11.68 40.24 12.27 -.2 12.64 -.2"/>
    <polygon class="cls-42" points="13.01 -.2 12.43 40.24 12.05 40.24 12.64 -.2 13.01 -.2"/>
    <polygon class="cls-96" points="13.38 -.2 12.8 40.24 12.43 40.24 13.01 -.2 13.38 -.2"/>
    <polygon class="cls-94" points="13.75 -.2 13.17 40.24 12.8 40.24 13.38 -.2 13.75 -.2"/>
    <polygon class="cls-14" points="14.12 -.2 13.54 40.24 13.17 40.24 13.75 -.2 14.12 -.2"/>
    <polygon class="cls-4" points="14.49 -.2 13.91 40.24 13.54 40.24 14.12 -.2 14.49 -.2"/>
    <polygon class="cls-85" points="14.86 -.2 14.28 40.24 13.91 40.24 14.49 -.2 14.86 -.2"/>
    <polygon class="cls-80" points="15.24 -.2 14.65 40.24 14.28 40.24 14.86 -.2 15.24 -.2"/>
    <polygon class="cls-92" points="15.61 -.2 15.02 40.24 14.65 40.24 15.24 -.2 15.61 -.2"/>
    <polygon class="cls-87" points="15.98 -.2 15.39 40.24 15.02 40.24 15.61 -.2 15.98 -.2"/>
    <polygon class="cls-84" points="16.35 -.2 15.76 40.24 15.39 40.24 15.98 -.2 16.35 -.2"/>
    <polygon class="cls-71" points="16.72 -.2 16.14 40.24 15.76 40.24 16.35 -.2 16.72 -.2"/>
    <polygon class="cls-28" points="17.09 -.2 16.51 40.24 16.14 40.24 16.72 -.2 17.09 -.2"/>
    <polygon class="cls-72" points="17.46 -.2 16.88 40.24 16.51 40.24 17.09 -.2 17.46 -.2"/>
    <polygon class="cls-10" points="17.83 -.2 17.25 40.24 16.88 40.24 17.46 -.2 17.83 -.2"/>
    <polygon class="cls-86" points="18.2 -.2 17.62 40.24 17.25 40.24 17.83 -.2 18.2 -.2"/>
    <polygon class="cls-26" points="18.57 -.2 17.99 40.24 17.62 40.24 18.2 -.2 18.57 -.2"/>
    <polygon class="cls-53" points="18.94 -.2 18.36 40.24 17.99 40.24 18.57 -.2 18.94 -.2"/>
    <polygon class="cls-60" points="19.32 -.2 18.73 40.24 18.36 40.24 18.94 -.2 19.32 -.2"/>
    <polygon class="cls-63" points="19.69 -.2 19.1 40.24 18.73 40.24 19.32 -.2 19.69 -.2"/>
    <polygon class="cls-69" points="20.06 -.2 19.47 40.24 19.1 40.24 19.69 -.2 20.06 -.2"/>
    <polygon class="cls-64" points="20.43 -.2 19.85 40.24 19.47 40.24 20.06 -.2 20.43 -.2"/>
    <polygon class="cls-57" points="20.8 -.2 20.22 40.24 19.85 40.24 20.43 -.2 20.8 -.2"/>
    <polygon class="cls-6" points="21.17 -.2 20.59 40.24 20.22 40.24 20.8 -.2 21.17 -.2"/>
    <polygon class="cls-73" points="21.54 -.2 20.96 40.24 20.59 40.24 21.17 -.2 21.54 -.2"/>
    <polygon class="cls-19" points="21.91 -.2 21.33 40.24 20.96 40.24 21.54 -.2 21.91 -.2"/>
    <polygon class="cls-11" points="22.28 -.2 21.7 40.24 21.33 40.24 21.91 -.2 22.28 -.2"/>
    <polygon class="cls-62" points="22.65 -.2 22.07 40.24 21.7 40.24 22.28 -.2 22.65 -.2"/>
    <polygon class="cls-21" points="23.03 -.2 22.44 40.24 22.07 40.24 22.65 -.2 23.03 -.2"/>
    <polygon class="cls-2" points="23.4 -.2 22.81 40.24 22.44 40.24 23.03 -.2 23.4 -.2"/>
    <polygon class="cls-54" points="23.77 -.2 23.18 40.24 22.81 40.24 23.4 -.2 23.77 -.2"/>
    <polygon class="cls-38" points="24.14 -.2 23.55 40.24 23.18 40.24 23.77 -.2 24.14 -.2"/>
    <polygon class="cls-90" points="24.51 -.2 23.93 40.24 23.55 40.24 24.14 -.2 24.51 -.2"/>
    <polygon class="cls-37" points="24.88 -.2 24.3 40.24 23.93 40.24 24.51 -.2 24.88 -.2"/>
    <polygon class="cls-104" points="25.25 -.2 24.67 40.24 24.3 40.24 24.88 -.2 25.25 -.2"/>
    <polygon class="cls-30" points="25.62 -.2 25.04 40.24 24.67 40.24 25.25 -.2 25.62 -.2"/>
    <polygon class="cls-35" points="25.99 -.2 25.41 40.24 25.04 40.24 25.62 -.2 25.99 -.2"/>
    <polygon class="cls-5" points="26.36 -.2 25.78 40.24 25.41 40.24 25.99 -.2 26.36 -.2"/>
    <polygon class="cls-13" points="26.73 -.2 26.15 40.24 25.78 40.24 26.36 -.2 26.73 -.2"/>
    <polygon class="cls-13" points="27.11 -.2 26.52 40.24 26.15 40.24 26.73 -.2 27.11 -.2"/>
    <polygon class="cls-78" points="27.48 -.2 26.89 40.24 26.52 40.24 27.11 -.2 27.48 -.2"/>
    <polygon class="cls-98" points="27.85 -.2 27.26 40.24 26.89 40.24 27.48 -.2 27.85 -.2"/>
    <polygon class="cls-33" points="28.22 -.2 27.64 40.24 27.26 40.24 27.85 -.2 28.22 -.2"/>
    <polygon class="cls-68" points="28.59 -.2 28.01 40.24 27.64 40.24 28.22 -.2 28.59 -.2"/>
    <polygon class="cls-31" points="28.96 -.2 28.38 40.24 28.01 40.24 28.59 -.2 28.96 -.2"/>
    <polygon class="cls-93" points="29.33 -.2 28.75 40.24 28.38 40.24 28.96 -.2 29.33 -.2"/>
    <polygon class="cls-65" points="29.7 -.2 29.12 40.24 28.75 40.24 29.33 -.2 29.7 -.2"/>
    <polygon class="cls-44" points="30.07 -.2 29.49 40.24 29.12 40.24 29.7 -.2 30.07 -.2"/>
    <polygon class="cls-45" points="30.44 -.2 29.86 40.24 29.49 40.24 30.07 -.2 30.44 -.2"/>
    <polygon class="cls-99" points="30.82 -.2 30.23 40.24 29.86 40.24 30.44 -.2 30.82 -.2"/>
    <polygon class="cls-99" points="31.19 -.2 30.6 40.24 30.23 40.24 30.82 -.2 31.19 -.2"/>
    <polygon class="cls-56" points="31.56 -.2 30.97 40.24 30.6 40.24 31.19 -.2 31.56 -.2"/>
    <polygon class="cls-8" points="31.93 -.2 31.35 40.24 30.97 40.24 31.56 -.2 31.93 -.2"/>
    <polygon class="cls-40" points="32.3 -.2 31.72 40.24 31.35 40.24 31.93 -.2 32.3 -.2"/>
    <polygon class="cls-18" points="32.67 -.2 32.09 40.24 31.72 40.24 32.3 -.2 32.67 -.2"/>
    <polygon class="cls-103" points="33.04 -.2 32.46 40.24 32.09 40.24 32.67 -.2 33.04 -.2"/>
    <polygon class="cls-43" points="33.41 -.2 32.83 40.24 32.46 40.24 33.04 -.2 33.41 -.2"/>
    <polygon class="cls-67" points="33.78 -.2 33.2 40.24 32.83 40.24 33.41 -.2 33.78 -.2"/>
    <polygon class="cls-67" points="34.15 -.2 33.57 40.24 33.2 40.24 33.78 -.2 34.15 -.2"/>
    <polygon class="cls-9" points="34.53 -.2 33.94 40.24 33.57 40.24 34.15 -.2 34.53 -.2"/>
    <polygon class="cls-20" points="34.9 -.2 34.31 40.24 33.94 40.24 34.53 -.2 34.9 -.2"/>
    <polygon class="cls-20" points="35.27 -.2 34.68 40.24 34.31 40.24 34.9 -.2 35.27 -.2"/>
    <polygon class="cls-77" points="35.64 -.2 35.05 40.24 34.68 40.24 35.27 -.2 35.64 -.2"/>
    <polygon class="cls-76" points="36.01 -.2 35.43 40.24 35.05 40.24 35.64 -.2 36.01 -.2"/>
    <polygon class="cls-76" points="36.38 -.2 35.8 40.24 35.43 40.24 36.01 -.2 36.38 -.2"/>
    <polygon class="cls-83" points="36.75 -.2 36.17 40.24 35.8 40.24 36.38 -.2 36.75 -.2"/>
    <polygon class="cls-50" points="37.12 -.2 36.54 40.24 36.17 40.24 36.75 -.2 37.12 -.2"/>
    <polygon class="cls-49" points="37.49 -.2 36.91 40.24 36.54 40.24 37.12 -.2 37.49 -.2"/>
    <polygon class="cls-55" points="37.86 -.2 37.28 40.24 36.91 40.24 37.49 -.2 37.86 -.2"/>
    <polygon class="cls-55" points="38.23 -.2 37.65 40.24 37.28 40.24 37.86 -.2 38.23 -.2"/>
    <polygon class="cls-97" points="38.61 -.2 38.02 40.24 37.65 40.24 38.23 -.2 38.61 -.2"/>
    <polygon class="cls-97" points="38.98 -.2 38.39 40.24 38.02 40.24 38.61 -.2 38.98 -.2"/>
    <polygon class="cls-32" points="39.35 -.2 38.76 40.24 38.39 40.24 38.98 -.2 39.35 -.2"/>
    <polygon class="cls-59" points="39.72 -.2 39.14 40.24 38.76 40.24 39.35 -.2 39.72 -.2"/>
    <polygon class="cls-82" points="40.09 -.2 39.51 40.24 39.14 40.24 39.72 -.2 40.09 -.2"/>
    <polygon class="cls-82" points="40.18 19.48 39.88 40.24 39.51 40.24 40.09 -.2 40.18 -.2 40.18 19.48"/>
    <polygon class="cls-25" points="39.88 40.24 40.18 19.48 40.18 40.24 39.88 40.24"/>
  </g>
</svg>
